<svg xmlns="http://www.w3.org/2000/svg" version="1.0" width="500.000000pt" height="500.000000pt" viewBox="0 0 500.000000 500.000000" preserveAspectRatio="xMidYMid meet">

<g transform="translate(0.000000,500.000000) scale(0.100000,-0.100000)" fill="#ffffff" stroke="none">
<path d="M880 4930 c-270 -26 -351 -60 -408 -171 -67 -132 -83 -199 -87 -364 -2 -108 -1 -133 5 -90 6 47 7 34 4 -55 -2 -63 -9 -272 -15 -465 -12 -370 -7 -952 11 -1240 6 -93 14 -212 17 -264 3 -65 8 -90 15 -80 6 10 8 -4 4 -41 -7 -80 25 -324 50 -373 8 -15 24 -72 36 -125 19 -93 50 -172 66 -172 4 0 13 5 20 12 9 9 12 0 11 -42 -1 -43 -3 -49 -9 -30 -6 20 -8 21 -9 6 -1 -11 20 -62 45 -113 25 -52 43 -101 40 -109 -4 -9 -2 -12 5 -8 7 4 10 1 7 -7 -3 -8 1 -26 9 -42 14 -29 26 -37 17 -12 -12 31 6 13 26 -25 23 -46 25 -54 8 -44 -7 4 -10 4 -6 0 3 -4 10 -8 15 -9 12 -2 64 -87 58 -96 -5 -10 54 -96 136 -196 215 -265 520 -479 854 -599 100 -36 303 -83 420 -97 142 -17 416 -15 561 5 567 76 1069 387 1390 862 29 44 54 84 54 88 0 4 13 26 29 49 35 52 76 131 63 123 -13 -8 17 70 44 114 30 49 114 281 114 316 1 45 19 116 38 144 25 37 42 90 43 135 1 34 2 36 8 15 6 -17 8 -6 7 35 -1 33 4 110 10 170 10 103 12 839 6 1767 -2 239 1 378 9 424 14 84 7 178 -25 313 -20 86 -30 110 -63 148 -21 25 -62 59 -91 75 -115 65 -489 92 -692 50 -209 -43 -308 -133 -362 -329 -22 -77 -22 -88 -28 -1243 -7 -1135 -7 -1167 -27 -1250 -52 -210 -149 -411 -256 -527 -51 -56 -168 -135 -241 -162 -101 -38 -220 -54 -356 -48 -376 15 -592 191 -726 592 -67 202 -65 152 -69 1310 -3 578 -7 1082 -10 1120 -16 194 -65 340 -140 423 -75 84 -211 125 -440 136 -60 2 -148 1 -195 -4z m-183 -86 c-3 -3 -12 -4 -19 -1 -8 3 -5 6 6 6 11 1 17 -2 13 -5z m57 -51 c21 -7 71 -13 110 -13 39 0 121 -5 181 -11 l110 -11 55 -58 c30 -32 66 -61 80 -65 22 -6 19 0 -20 38 -87 87 -95 105 -65 129 13 10 30 18 39 18 25 0 92 -48 122 -87 20 -26 29 -32 35 -22 6 11 11 11 20 2 16 -16 -116 -153 -173 -179 -37 -17 -41 -17 -52 -2 -21 29 -38 25 -51 -12 -10 -30 -17 -36 -51 -40 -21 -3 -56 -13 -76 -23 -21 -9 -46 -17 -56 -17 -11 0 -53 -16 -94 -35 -42 -19 -90 -36 -107 -37 -33 -2 -38 -15 -19 -51 23 -44 26 -54 36 -108 14 -73 36 -805 29 -949 -3 -63 -12 -214 -19 -335 -21 -368 -13 -1065 14 -1065 4 0 8 -15 9 -32 0 -41 22 -144 32 -154 4 -4 7 -17 7 -29 0 -12 9 -40 20 -63 11 -22 20 -45 20 -50 0 -5 6 -22 14 -38 8 -16 21 -47 31 -69 9 -22 25 -57 36 -78 10 -22 19 -45 19 -52 0 -7 3 -15 8 -17 10 -4 52 -87 52 -104 0 -8 3 -14 8 -14 8 0 32 -49 32 -67 0 -7 4 -13 9 -13 5 0 11 -8 14 -17 13 -39 100 -174 147 -227 70 -80 199 -205 233 -225 21 -13 43 -28 50 -35 6 -6 40 -34 74 -61 50 -39 63 -56 63 -77 0 -28 -22 -39 -35 -17 -4 6 -13 8 -21 5 -8 -3 -14 -1 -14 4 0 5 -11 12 -24 16 -14 3 -32 14 -42 25 -9 10 -24 19 -32 19 -9 0 -12 3 -9 7 8 7 -38 26 -113 48 -40 11 -116 49 -130 65 -3 3 -25 18 -50 34 -25 16 -56 40 -69 53 -25 25 -46 29 -56 13 -8 -13 -31 3 -46 32 -9 16 -7 17 18 7 l28 -10 -25 26 c-14 14 -26 21 -28 16 -6 -18 -22 -2 -22 22 -1 31 -23 57 -57 66 -15 4 -33 18 -40 31 -6 13 -27 38 -45 55 -36 34 -85 111 -105 162 -6 18 -26 48 -42 65 -36 39 -38 51 -12 102 15 28 17 44 11 62 -12 31 -38 31 -50 -1 -12 -31 -16 -31 -35 -1 -13 19 -14 28 -4 50 7 14 18 26 25 26 20 0 25 32 14 88 -11 58 -21 82 -44 102 -14 11 -16 9 -16 -12 0 -13 -6 -33 -14 -44 -15 -19 -15 -19 -37 3 -19 19 -21 26 -11 47 6 13 20 27 32 31 17 5 20 12 16 28 -3 12 -9 49 -12 82 -5 60 -30 135 -44 135 -5 0 -11 12 -14 27 -9 34 -8 868 2 1278 6 282 6 671 -1 1165 -2 133 0 155 14 158 8 1 21 -9 30 -25 18 -35 33 -51 50 -55 8 -2 19 -10 26 -18 6 -8 14 -12 17 -9 7 7 -11 60 -22 69 -4 3 -15 16 -24 30 -8 14 -33 34 -54 45 -50 26 -82 57 -99 98 -12 29 -12 35 7 57 l20 25 -6 -27 c-9 -38 14 -37 42 2 12 16 22 32 22 35 0 10 21 28 64 58 42 28 61 28 140 0z m33 21 c-3 -3 -12 -4 -19 -1 -8 3 -5 6 6 6 11 1 17 -2 13 -5z m358 -4 c16 -7 11 -9 -20 -9 -29 -1 -36 2 -25 9 17 11 19 11 45 0z m2617 -58 c50 -54 102 -76 203 -87 58 -6 59 -6 30 8 -16 9 -52 21 -78 28 -47 14 -84 39 -56 39 73 0 301 -25 328 -36 18 -8 35 -14 36 -14 2 0 -3 14 -12 31 -20 40 -10 48 19 15 16 -19 32 -27 53 -26 41 1 72 1 88 -1 6 -1 20 2 30 6 13 5 17 2 16 -11 0 -23 -104 -99 -163 -121 -28 -10 -94 -17 -202 -20 -150 -4 -163 -3 -175 14 -8 11 -22 22 -31 26 -15 5 -18 1 -18 -23 0 -21 -5 -30 -16 -30 -8 0 -22 -7 -31 -15 -8 -8 -19 -13 -24 -10 -5 4 -9 -7 -9 -22 0 -16 -4 -33 -8 -38 -5 -6 -15 -30 -22 -55 -8 -25 -24 -60 -36 -78 -18 -28 -20 -39 -12 -75 30 -147 33 -205 32 -722 0 -565 -18 -1335 -33 -1500 -15 -153 -45 -253 -127 -417 -68 -138 -148 -240 -211 -270 -30 -15 -38 -16 -67 -3 -15 7 -23 3 -35 -16 -8 -13 -49 -58 -91 -100 -109 -110 -191 -147 -425 -194 -147 -29 -190 -30 -235 -2 -28 18 -48 21 -105 19 -82 -2 -89 0 -255 76 -65 30 -98 53 -141 98 -32 33 -59 70 -60 84 -2 14 -8 28 -14 32 -7 5 -7 8 0 8 6 0 22 -11 37 -25 15 -14 30 -25 33 -25 19 0 96 -43 108 -60 11 -16 65 -34 126 -41 3 0 -3 -4 -14 -9 -14 -5 -3 -8 35 -8 30 0 71 -7 90 -15 l35 -15 -35 -2 -35 -2 30 -9 c36 -11 186 -13 241 -3 38 7 102 31 156 60 14 8 47 14 73 14 38 0 62 9 131 50 47 28 89 50 95 50 10 0 178 165 244 240 42 49 69 97 66 118 -3 16 26 64 46 75 7 4 13 16 13 27 0 10 5 31 12 47 6 15 10 33 9 39 -1 7 12 25 28 40 38 35 49 81 62 254 12 159 33 1311 34 1853 0 207 3 377 6 377 3 0 15 -9 27 -20 19 -18 42 -27 42 -16 0 3 -21 25 -47 49 -44 42 -47 48 -51 105 -4 50 0 68 17 97 11 19 26 64 32 100 11 68 18 75 39 50 9 -11 16 -13 23 -6 7 7 6 15 -1 24 -16 19 -5 27 28 20 15 -3 36 0 47 6 26 15 24 16 75 -37z m-2342 -6 c0 -3 -4 -8 -10 -11 -5 -3 -10 -1 -10 4 0 6 5 11 10 11 6 0 10 -2 10 -4z m70 -234 c0 -39 -21 -65 -50 -60 -34 5 -38 45 -6 58 13 5 27 14 31 19 12 20 25 11 25 -17z m2826 -60 c6 -4 14 -16 19 -27 5 -11 12 -371 16 -800 4 -429 11 -913 15 -1075 8 -339 -1 -474 -48 -670 -28 -122 -79 -288 -98 -322 -6 -10 -10 -22 -10 -28 0 -5 -13 -39 -30 -75 -16 -36 -30 -68 -30 -70 0 -3 -8 -24 -19 -48 -10 -23 -27 -62 -37 -87 -11 -25 -43 -79 -73 -120 -30 -41 -74 -106 -99 -144 -24 -39 -80 -112 -123 -164 -44 -51 -79 -99 -79 -106 0 -19 -29 -40 -80 -59 -59 -22 -67 -21 -73 4 -4 15 5 30 34 56 50 45 103 112 96 120 -4 3 -24 -2 -46 -11 l-40 -16 10 26 c10 29 -2 54 -27 54 -21 0 -17 26 13 73 62 99 131 283 193 517 7 25 16 56 20 70 21 68 28 96 80 335 30 137 42 387 30 615 -5 91 -12 413 -16 715 -6 521 -5 562 16 770 30 306 58 393 135 430 66 31 225 55 251 37z m-2991 -80 c11 -2 35 -10 54 -18 29 -12 33 -17 28 -41 -4 -16 -14 -100 -23 -188 -17 -168 -16 -459 6 -1080 5 -143 12 -404 16 -580 5 -279 9 -334 29 -430 57 -272 110 -390 228 -509 44 -45 92 -101 107 -126 21 -35 165 -233 209 -286 22 -26 30 -51 20 -61 -9 -9 -43 -6 -129 13 -14 3 -31 6 -37 6 -7 1 -13 6 -13 11 0 6 -3 7 -6 4 -4 -4 -25 3 -48 16 -43 23 -47 26 -85 57 -13 11 -28 20 -32 20 -17 0 -120 104 -154 155 -51 77 -98 170 -124 245 -12 36 -26 72 -30 80 -4 8 -13 40 -20 70 -7 30 -16 64 -21 75 -5 11 -11 34 -14 50 -3 17 -10 53 -16 80 -32 150 -39 388 -40 1348 0 636 3 964 10 977 5 10 10 33 10 51 0 32 38 87 49 72 3 -5 15 -10 26 -11z m313 -244 l-1 -113 -7 100 c-6 92 -4 125 6 125 2 0 3 -51 2 -112z m1769 -190 c-2 -13 -4 -5 -4 17 -1 22 1 32 4 23 2 -10 2 -28 0 -40z m-1843 -158 c3 -92 2 -116 -3 -75 -12 82 -20 289 -10 245 4 -19 10 -96 13 -170z m-1157 -302 c-1 -46 -3 -11 -3 77 0 88 2 125 3 83 2 -42 2 -114 0 -160z m1142 -290 c-1 -93 -3 -113 -10 -83 -14 71 -10 205 7 205 2 0 3 -55 3 -122z m-1140 -175 c-1 -119 -4 -155 -10 -123 -12 73 -7 290 7 290 2 0 3 -75 3 -167z m2988 -250 c-2 -32 -3 -6 -3 57 0 63 1 89 3 58 2 -32 2 -84 0 -115z m-2977 -58 c0 -50 -4 -85 -10 -85 -11 0 -14 152 -3 163 12 13 13 7 13 -78z m3014 -360 l6 -60 -15 45 c-10 29 -17 92 -20 175 l-4 130 14 -115 c7 -63 16 -142 19 -175z m-1820 35 c-5 -36 -9 -46 -12 -30 l-4 25 -14 -30 c-8 -17 -12 -22 -10 -13 3 9 11 75 18 145 l13 128 8 -85 c4 -47 5 -110 1 -140z m1773 73 c-2 -16 -4 -5 -4 22 0 28 2 40 4 28 2 -13 2 -35 0 -50z m10 -100 c-3 -10 -5 -2 -5 17 0 19 2 27 5 18 2 -10 2 -26 0 -35z m-1788 -255 c1 -26 -3 -50 -9 -53 -6 -4 -10 22 -9 72 1 84 16 69 18 -19z m78 -58 c5 -37 4 -42 -13 -38 -13 2 -20 13 -22 37 -8 76 25 78 35 1z m1770 -7 c-3 -10 -5 -2 -5 17 0 19 2 27 5 18 2 -10 2 -26 0 -35z m-2918 -353 c1 -26 -2 -31 -9 -20 -5 8 -9 33 -9 55 0 31 2 36 9 20 5 -11 9 -36 9 -55z m3727 -572 c-18 -26 -22 -17 -5 14 6 11 13 17 16 15 3 -3 -2 -16 -11 -29z m-3365 -235 c13 -16 12 -17 -3 -4 -10 7 -18 15 -18 17 0 8 8 3 21 -13z m79 -101 c0 -3 -9 3 -20 13 -11 10 -20 23 -20 28 0 6 9 0 20 -13 11 -13 20 -25 20 -28z" fill="#ffffff"/>
<path d="M1023 4693 c9 -2 25 -2 35 0 9 3 1 5 -18 5 -19 0 -27 -2 -17 -5z" fill="#ffffff"/>
<path d="M3550 4615 c-23 -28 -8 -50 38 -53 49 -4 52 5 14 41 -33 31 -35 32 -52 12z" fill="#ffffff"/>
<path d="M2240 1166 c0 -2 9 -6 20 -9 11 -3 20 -1 20 4 0 5 -9 9 -20 9 -11 0 -20 -2 -20 -4z" fill="#ffffff"/>
<path d="M1603 2440 c0 -25 2 -35 4 -22 2 12 2 32 0 45 -2 12 -4 2 -4 -23z" fill="#ffffff"/>
<path d="M4609 3920 c3 -179 5 -563 4 -854 -2 -291 0 -527 3 -523 3 3 9 198 14 434 7 419 -2 997 -19 1178 -6 56 -7 -32 -2 -235z" fill="#ffffff"/>
<path d="M4602 2140 c0 -14 2 -19 5 -12 2 6 2 18 0 25 -3 6 -5 1 -5 -13z" fill="#ffffff"/>
<path d="M4591 2064 c0 -11 3 -14 6 -6 3 7 2 16 -1 19 -3 4 -6 -2 -5 -13z" fill="#ffffff"/>
<path d="M4362 1295 c-17 -37 -14 -45 4 -12 9 16 14 31 11 33 -2 2 -9 -7 -15 -21z" fill="#ffffff"/>
</g>
</svg>